<?xml version="1.0" encoding="UTF-8" standalone="no"?>
<!-- Created with Inkscape (http://www.inkscape.org/) -->

<svg
   width="260.7821mm"
   height="259.26135mm"
   viewBox="0 0 260.7821 259.26135"
   version="1.1"
   id="svg1"
   xml:space="preserve"
   xmlns="http://www.w3.org/2000/svg"
   xmlns:svg="http://www.w3.org/2000/svg"><defs
     id="defs1" /><g
     id="layer1"
     transform="translate(158.4878,-404.25547)"><g
       id="g15"
       transform="matrix(0.26458333,0,0,0.26458333,-124.08958,209.55)"><g
         id="g16"><path
           fill="#2a6a95"
           opacity="1"
           stroke="none"
           d="m 73.804389,1206.6201 c -0.0294,-0.4497 -0.0587,-0.8994 0.36672,-1.7819 1.04017,-5.6799 4.59967,-10.7015 1.65112,-16.2164 0.58774,-8.4324 0.58511,-8.4441 8.46649,-10.2166 14.43739,-3.2468 28.893831,-6.4121 43.295471,-9.81 1.58682,-0.3744 3.78882,-1.7959 4.15363,-3.1499 5.92401,-21.9876 14.68954,-42.7337 26.63672,-62.1279 -9.63556,-14.1416 -19.15061,-28.1874 -28.77872,-42.1554 -1.5686,-2.2756 -2.03473,-3.8943 -0.26794,-6.5352 16.36764,-24.465 37.89166,-43.6742 61.34219,-60.99789 2.57135,-1.89951 4.23804,-0.63892 6.19781,0.64932 13.34983,8.77557 26.73664,17.49557 40.02674,26.36057 2.00589,1.338 3.36227,1.8236 5.66712,0.354 17.98728,-11.4694 37.56748,-19.1938 58.31128,-23.95017 3.25876,-0.74716 4.42001,-1.98932 5.03781,-5.39868 2.99347,-16.52019 6.44861,-32.95671 9.97031,-50.57422 15.51193,-0.87367 31.08121,-2.41614 46.65182,-2.42946 13.94165,-0.0119 27.8797,1.75081 41.83087,2.52284 3.21979,0.17817 4.02454,1.6346 4.59363,4.50696 3.10236,15.65915 6.39307,31.28214 9.80457,46.87696 0.30981,1.41616 1.73968,3.39651 2.97815,3.6802 22.28528,5.10547 42.90368,14.12157 62.28283,26.20367 15.4469,-10.0019 30.79438,-19.9394 46.22514,-29.93075 27.4243,16.13775 47.4339,39.89575 66.6279,64.52455 -9.6128,13.9872 -19.0249,27.8957 -28.7147,41.608 -2.0241,2.8643 -2.1412,4.8159 -0.3347,7.8453 10.6263,17.8188 18.6629,36.7571 23.362,57.0076 0.7037,3.0323 2.0019,4.3793 5.0281,5.0252 15.1215,3.2277 30.1686,6.8081 45.306,9.9557 4.0872,0.8498 5.9032,2.225 6.5622,6.7893 3.935,27.2556 3.7924,54.4402 -0.4864,81.5997 -0.2296,1.4574 -2.4181,3.3569 -4.0068,3.7333 -15.8549,3.7565 -31.7466,7.3741 -47.6998,10.6847 -3.4602,0.7181 -4.4982,2.5068 -5.2613,5.4765 -5.1272,19.9531 -13.0674,38.7363 -24.0856,56.1524 -1.6359,2.5859 -1.3135,4.2516 0.2949,6.5536 10.0044,14.3194 19.8789,28.7296 29.8833,43.2357 -13.6962,19.5172 -29.6886,36.8 -47.9577,51.9757 -4.865,4.0412 -9.9742,7.7872 -14.88,11.781 -2.608,2.1232 -4.6672,2.4435 -7.8013,0.3292 -14.06276,-9.4872 -28.3727,-18.6079 -42.75649,-27.9669 -19.013,12.4775 -39.80212,21.0184 -62.01715,26.2567 -1.42364,0.3357 -3.16192,2.3621 -3.48462,3.873 -3.22986,15.1228 -6.25769,30.2899 -9.18267,45.4755 -0.65552,3.4036 -1.99286,5.0749 -5.74946,5.2573 -17.10705,0.8305 -34.1947,2.5332 -51.30212,2.7153 -10.75455,0.1145 -21.54984,-1.7647 -32.27716,-3.1375 -1.42459,-0.1824 -3.34973,-2.487 -3.69864,-4.0996 -3.16415,-14.6245 -6.159,-29.2895 -8.89719,-43.9997 -0.75421,-4.0517 -2.21331,-6.0476 -6.54003,-7.1207 -20.465,-5.0761 -39.7147,-13.2717 -57.73649,-24.2248 -2.58387,-1.5705 -4.30054,-1.3314 -6.62754,0.2815 -12.99844,9.0091 -26.11111,17.8532 -39.13562,26.825 -2.08588,1.4369 -3.65579,2.1468 -6.10931,0.2769 -22.49073,-17.1407 -43.172,-36.0712 -60.01291,-58.9748 -2.59458,-3.5286 -3.08756,-5.9871 -0.39417,-9.9392 8.61979,-12.6479 16.62296,-25.7144 24.99955,-38.5309 1.55984,-2.3866 1.48297,-4.1272 0.28378,-6.7621 -6.73486,-14.7977 -13.13632,-29.7472 -19.40125,-45.2646 -1.23034,-5.1188 -2.711,-9.6179 -4.19165,-14.1171 -0.52212,-0.612 -1.04422,-1.2242 -1.9389,-2.3262 -1.20706,-0.883 -2.0033,-1.4466 -2.88174,-1.6435 -14.80014,-3.3195 -29.640281,-6.4703 -44.382131,-10.0288 -1.9074,-0.4604 -4.42931,-2.7694 -4.76691,-4.577 -1.44757,-7.7506 -2.66134,-15.6097 -3.05978,-23.475 -0.50047,-9.8796 -0.0781,-19.8042 -0.16176,-29.7085 -0.0147,-1.7428 -0.5582,-3.4813 -0.8575,-5.2218 M 439.10248,1059.6517 c -21.98761,-10.6735 -45.21191,-16.815 -69.59454,-17.8889 -32.80271,-1.4446 -63.7273,6.0275 -92.8815,21.0163 -70.64323,36.3193 -109.69282,114.8247 -96.14308,192.9541 4.76969,27.5025 15.04795,52.6686 31.06848,75.4804 1.94117,2.7641 2.15744,4.9743 0.76343,8.1261 -5.51288,12.4644 -10.70816,25.0701 -15.9519,37.6523 -2.00681,4.8153 -3.82758,9.7083 -5.986,15.2105 19.09388,-5.3208 37.36289,-10.2228 55.50075,-15.5697 6.22967,-1.8365 10.82534,-1.3613 16.68536,2.5798 32.64722,21.9564 68.96039,31.6397 108.27094,29.5892 48.0689,-2.5073 88.85217,-21.456 122.37121,-55.7239 28.74712,-29.3893 45.38922,-64.8255 50.71582,-105.6154 4.6975,-35.9732 -1.3066,-70.2359 -15.8574,-103.251 -1.3334,-3.0254 -2.5584,-6.6773 -2.132,-9.8064 2.8968,-21.257 6.2646,-42.4497 9.4499,-63.6676 1.1974,-7.9769 2.3143,-15.9659 3.5367,-24.4256 -2.2369,0.4353 -3.6982,0.6724 -5.1369,1.0066 -22.5113,5.2298 -45.13044,10.0496 -67.47718,15.9081 -9.68073,2.5379 -18.33637,3.2656 -27.20209,-3.5749 z"
           id="path2" /><path
           fill="#1d567e"
           opacity="1"
           stroke="none"
           d="m 296.62143,1509.6358 c 3.56992,14.0685 7.33106,17.1026 21.08295,19.0216 28.3783,3.9602 56.74881,4.0685 85.20407,0.9689 16.06787,-1.7505 21.17218,-5.9238 24.88263,-21.601 1.297,-5.4799 0.79956,-12.4951 4.09278,-16.0788 3.27954,-3.5688 10.29382,-3.6906 15.6571,-5.3669 2.21985,-0.6938 4.40466,-1.4995 7.45477,-2.5456 1.43463,6.7316 3.20239,13.2683 4.18225,19.9211 4.83753,32.8433 0.71454,64.0784 -17.66711,92.4753 -7.91284,12.2242 -18.1886,22.0401 -31.20343,28.8481 -2.46332,1.2887 -4.07452,1.4488 -6.45703,-0.7706 -24.55695,-22.8773 -56.13782,-23.867 -82.36582,-2.5399 -3.24759,2.6409 -6.05896,3.548 -10.23227,2.9999 -62.25671,-8.1743 -118.51026,-31.7423 -170.60187,-66.0964 -0.11487,-0.076 -0.14011,-0.2874 -0.36798,-0.7906 19.61496,1.0285 37.66888,-3.7189 54.5357,-13.3912 1.09537,-0.6281 3.37711,0.043 4.74716,0.7787 21.56961,11.5897 43.65532,21.9778 67.07148,29.3372 1.5438,0.4852 3.08982,0.9634 5.60431,1.747 -11.80441,-30.9986 -12.7724,-61.734 -3.62268,-92.7023 7.37552,2.0251 14.28519,3.7852 21.08258,5.9053 1.34714,0.4202 2.896,2.0511 3.26603,3.4177 1.43176,5.2882 2.42449,10.6951 3.65438,16.4625 z"
           id="path3" /><path
           fill="#717479"
           opacity="1"
           stroke="none"
           d="m 69.625119,1479.5684 c -6.71877,-1.3623 -13.01934,-2.9995 -19.42202,-3.6906 -3.16383,-0.3415 -5.05352,-1.3086 -6.90423,-3.7877 -34.8238846,-46.6487 -58.875635,-98.3265 -72.550182,-154.8716 -1.0888,-4.5022 -2.05677,-9.0338 -3.34953,-14.7368 2.73966,2.2993 4.63308,3.9306 6.57062,5.5076 10.672907,8.687 22.5770074,15.2431 35.1542774,20.7455 2.0547796,0.8988 4.1704496,3.2406 4.8865196,5.3756 8.18269,24.3964 18.64691,47.7165 32.059575,69.6927 0.83834,1.3736 1.82734,2.6553 3.06676,4.4417 8.10086,-15.9173 17.67684,-30.1366 30.3165,-41.9454 9.7102,-9.0718 20.04742,-17.4726 30.694661,-26.681 4.57434,7.9734 8.67944,14.9138 12.47482,22.0196 0.46921,0.8785 -0.46512,2.7848 -1.16895,3.9642 -3.23724,5.4247 -6.93817,10.5942 -9.88385,16.1666 -4.61825,8.7364 -3.92886,17.3214 2.0748,25.3184 18.40927,24.5217 39.26767,46.5596 64.27908,64.5594 9.95264,7.1625 19.73185,8.1709 30.12668,1.6237 4.78693,-3.015 9.3916,-6.3229 14.22196,-9.2629 1.16314,-0.7079 3.26233,-1.1485 4.30417,-0.5745 5.81549,3.2048 11.43841,6.759 17.72202,10.5528 -2.55729,4.0663 -4.89945,8.1993 -7.6273,12.0599 -15.13482,21.4201 -33.14053,39.7248 -57.79449,49.9757 -19.92761,8.2858 -40.61887,9.4659 -61.73224,4.6961 -5.01645,-1.1333 -6.88013,-3.3374 -7.39551,-8.502 -1.72961,-17.3337 -9.30343,-31.9188 -23.031321,-42.7572 -5.01728,-3.9612 -11.11298,-6.5564 -17.09282,-9.8898 z"
           id="path4" /><path
           fill="#717479"
           opacity="1"
           stroke="none"
           d="m 640.99525,1485.8501 c -16.1975,11.1487 -25.2037,26.2804 -27.3318,45.4008 -0.4927,4.4259 -2.1064,7.4203 -5.7665,10.218 -49.2219,37.6236 -103.89817,63.8237 -163.94669,78.9041 -0.78729,0.1977 -1.60284,0.2832 -3.13483,0.5465 4.21283,-5.1689 8.59717,-9.4424 11.64069,-14.5195 5.79327,-9.6642 11.06665,-19.6672 16.01831,-29.7925 1.51843,-3.1048 3.1004,-4.9733 6.33844,-6.1473 23.20929,-8.4144 45.01078,-19.728 67.06108,-32.7835 -26.75688,-15.5263 -46.89433,-36.7426 -62.39384,-62.9022 6.95868,-4.2333 13.74688,-8.3629 20.68188,-12.5818 4.98963,3.4599 9.96704,7.0283 15.06232,10.4194 9.87584,6.5729 19.43284,6.056 29.21654,-0.7233 25.9021,-17.9485 47.3686,-40.3449 66.2646,-65.3376 5.462,-7.2244 6.1821,-15.4582 2.392,-23.6179 -2.7221,-5.8606 -6.1748,-11.4053 -9.5991,-16.9056 -1.4771,-2.3726 -1.8798,-4.0906 -0.3321,-6.7004 3.63,-6.1209 6.8098,-12.5087 10.8073,-19.9753 9.0201,7.7001 18.3907,14.669 26.537,22.8561 20.6503,20.7535 35.4132,44.9419 39.7092,74.4728 1.7185,11.8124 1.0172,23.5835 -2.6799,35.0669 -0.7708,2.3944 -1.6582,3.8227 -4.7056,3.9558 -11.3491,0.4963 -21.8995,3.8578 -31.839,10.1465 z"
           id="path5" /><path
           fill="#717479"
           opacity="1"
           stroke="none"
           d="m 754.65715,1145.6695 c -13.5552,-10.9434 -28.392,-19.6766 -44.5451,-26.2446 -1.4559,-0.592 -2.7142,-2.7637 -3.2126,-4.4531 -7.4907,-25.392 -18.6908,-49.0813 -31.9005,-70.7679 -9.0378,11.4268 -17.4786,23.7603 -27.6325,34.4695 -10.1412,10.6957 -21.9972,19.7655 -33.581,29.9705 -4.2768,-6.81 -8.1544,-12.7208 -11.6636,-18.8427 -0.5564,-0.9707 0.2179,-3.081 0.9394,-4.3429 3.2994,-5.7704 7.0714,-11.2832 10.1601,-17.1586 4.1718,-7.9362 3.4078,-16.0802 -1.6424,-23.2075 -18.7539,-26.4669 -40.9625,-49.4513 -68.5546,-66.95023 -9.7417,-6.17824 -19.0681,-5.82027 -28.54607,0.22873 -4.34913,2.77569 -8.65503,5.64227 -13.17408,8.11395 -1.27789,0.69894 -3.60791,0.77774 -4.82238,0.0639 -5.29615,-3.11282 -10.35895,-6.62237 -16.76416,-10.81009 8.3385,-10.84527 15.86956,-22.00401 24.77996,-31.92378 15.00723,-16.70723 32.62833,-29.93083 54.98773,-35.50487 17.332,-4.32075 34.3013,-2.75975 51.0972,2.94849 2.8538,0.96989 3.3438,2.56656 3.568,5.06535 1.5776,17.58133 9.006,32.16535 22.4994,43.63439 10.2729,8.73169 22.3682,13.01742 35.5617,14.29548 3.1621,0.30631 5.0491,1.40509 6.8993,3.83953 33.1754,43.65235 55.891,92.38655 70.6061,145.01175 1.9694,7.0429 3.5891,14.1836 5.2736,21.7952 -0.097,0.5162 -0.3335,0.7695 -0.3335,0.7695 z"
           id="path6" /><path
           fill="#1d567e"
           opacity="1"
           stroke="none"
           d="m 704.02715,1344.9253 c 3.4845,-10.9164 6.8055,-21.477 10.5106,-33.2588 -30.966,14.4155 -61.3579,13.9142 -92.5223,5.5999 1.9487,-7.1243 3.6697,-13.8416 5.7209,-20.4566 0.3071,-0.9901 2.0699,-1.8253 3.3162,-2.1785 7.0272,-1.9919 14.155,-3.6396 21.1483,-5.7382 9.2962,-2.7895 14.1184,-9.4389 15.4483,-18.8795 4.2795,-30.3786 3.8461,-60.7325 -0.2596,-91.0934 -1.2788,-9.4559 -6.3753,-15.5673 -15.4194,-18.1788 -6.8552,-1.9794 -13.8885,-3.3404 -20.7497,-5.3014 -1.4558,-0.4161 -3.1817,-2.0288 -3.6308,-3.4535 -1.891,-5.9989 -3.3457,-12.1353 -4.9595,-18.2216 49.1265,-22.55 111.739,1.974 139.5005,44.6142 -4.5908,9.183 -10.0838,17.5185 -13.0666,26.6718 -6.8637,21.063 -2.558,40.6555 10.466,58.5063 1.3882,1.9025 2.3498,4.8239 2.0922,7.1132 -3.8147,33.9065 -12.7073,66.5414 -25.3361,98.1783 -10.0637,25.2108 -21.9419,49.5276 -36.4831,72.4946 -0.7807,1.2331 -1.5519,2.4721 -2.8405,4.526 -0.932,-7.0317 -1.0707,-13.3556 -2.7101,-19.2631 -2.7429,-9.8836 -6.2346,-19.5806 -9.873,-29.1811 -1.0476,-2.7641 -1.0316,-4.672 0.1447,-7.3255 6.5943,-14.8739 12.9213,-29.8664 19.503,-45.1743 z"
           id="path7" /><path
           fill="#727479"
           opacity="1"
           stroke="none"
           d="m 282.7999,834.68674 c -12.56683,13.11722 -22.61194,27.82258 -28.86682,45.02009 -0.51767,1.42326 -2.76181,2.59328 -4.44641,3.16103 -23.56239,7.94093 -46.29005,17.69624 -67.57298,30.64866 -1.10413,0.67194 -2.13827,1.45879 -3.76489,2.57703 29.46277,12.80705 48.74145,35.4173 64.46702,62.16222 -5.87196,3.06741 -11.70567,6.11486 -17.36555,9.0715 -5.79614,-3.38202 -11.47559,-6.81641 -17.26752,-10.04923 -10.59439,-5.91342 -20.7344,-4.64958 -30.47577,2.16422 -21.60421,15.11154 -40.12936,33.45654 -56.57132,53.96554 -3.32574,4.1484 -6.44812,8.4865 -9.34997,12.9418 -4.43177,6.8044 -5.01184,14.1564 -1.25251,21.3472 3.14798,6.0215 7.11008,11.6128 10.4676,17.533 0.72332,1.2754 1.07678,3.5102 0.44516,4.6783 -3.22635,5.9668 -6.83146,11.7288 -10.82587,18.4391 -7.65488,-5.9721 -15.506851,-11.5341 -22.714071,-17.8337 -16.98858,-14.8494 -31.17119,-31.9646 -39.59349,-53.1842 -7.558575,-19.0435 -8.462655,-38.48988 -2.46342,-58.19646 0.9035,-2.9678 1.97432,-4.50249 5.59573,-4.80224 31.71105,-2.62476 55.609241,-26.23078 58.754931,-57.39043 0.19684,-1.94969 1.75159,-4.23003 3.3533,-5.50142 35.16092,-27.9093 74.22592,-48.73306 116.76081,-62.84284 16.85654,-5.59169 34.2143,-9.67229 51.87678,-14.30755 0.53292,0.13333 0.80926,0.39838 0.80926,0.39838 z"
           id="path8" /><path
           fill="#1d567e"
           opacity="1"
           stroke="none"
           d="m 53.463049,1243.5847 c 1.05043,9.4172 2.01905,18.8444 3.1756,28.2485 1.03761,8.437 5.86281,14.1195 13.78761,16.7121 7.2499,2.3718 14.68982,4.2213 22.13495,5.9084 2.88994,0.6547 4.0613,1.7508 4.60753,4.7141 1.04985,5.6955 2.72722,11.2753 4.147511,16.9024 -45.782821,18.2681 -110.9874356,0 -140.723403,-45.4023 5.20295,-9.6886 11.46298,-18.3562 14.72751,-28.0343 7.245417,-21.4801 2.388697,-41.2661 -11.64143,-58.9946 -1.51817,-1.9184 -2.55106,-5.0592 -2.26258,-7.4461 6.67131,-55.1991 27.609617,-105.4665 53.658957,-153.9287 3.01396,-5.6072 6.33999,-11.0466 9.99945,-16.4278 0.82109,15.2701 3.84863,29.8657 10.69084,43.2699 3.29407,6.4533 2.97359,11.2405 -0.43775,17.6084 -11.65551,21.7576 -20.39158,44.714 -25.15736,69.0472 -0.11974,0.6113 -0.13188,1.2437 -0.2491896,2.4153 30.2390896,-14.1522 60.8591046,-15.0655 92.2016256,-5.8004 -2.06081,7.2374 -3.886631,14.0916 -6.056171,20.8353 -0.36328,1.1292 -2.09459,2.2014 -3.40222,2.5801 -7.17703,2.0783 -14.44627,3.8369 -21.63156,5.8884 -8.43567,2.4086 -13.12757,8.3851 -14.33295,16.7958 -1.34396,9.3777 -2.06059,18.8452 -3.53027,28.8368 -0.79108,1.1099 -1.37027,1.655 -1.37361,2.2036 -0.0643,10.4966 -0.10169,20.994 0.004,31.4898 0.009,0.8648 1.08351,1.719 1.66296,2.5781 z"
           id="path9-6" /><path
           fill="#1d567e"
           opacity="1"
           stroke="none"
           d="m 262.73108,939.42959 c -1.65954,-21.12768 0.0773,-41.37683 8.00144,-60.74314 9.68658,-23.67362 25.32843,-41.61064 49.82596,-50.8062 0.46051,-0.17285 0.96936,-0.21693 2.35699,-0.51416 4.17786,11.52727 8.43893,23.14042 12.59488,34.79109 4.18173,11.72298 8.25888,23.48328 13.38687,35.26681 1.24512,-6.88652 2.49103,-13.77287 3.73456,-20.65966 0.2363,-1.30873 0.41531,-2.62975 0.70206,-3.92711 1.53506,-6.94609 2.68408,-13.25534 -2.5058,-19.99674 -4.93259,-6.40722 -2.46833,-9.99395 5.62216,-10.06395 4.29016,-0.0371 8.59253,0.70437 12.88031,1.17714 4.53723,0.50027 5.1452,3.48152 4.349,7.21869 -0.17047,0.80028 -0.37732,1.72167 -0.89081,2.30017 -5.51733,6.2157 -3.91101,12.99301 -2.15576,20.09246 1.9082,7.71829 3.04223,15.62799 4.78943,24.92031 1.03949,-2.70561 1.6549,-4.25595 2.23297,-5.82011 7.31354,-19.78934 14.77655,-39.52579 21.82324,-59.40976 1.77936,-5.02087 4.31946,-6.33475 9.42017,-5.57738 36.71441,5.45156 72.0227,15.82383 106.32238,29.83103 22.51732,9.19552 44.00062,20.40809 65.63142,33.55612 -6.2215,0.34994 -11.5676,0.29137 -16.8046,1.01877 -11.4976,1.59697 -22.2766,5.48282 -32.0756,11.74041 -2.6023,1.66182 -4.521,1.53939 -7.2089,0.24202 -21.44014,-10.34834 -43.47695,-19.19656 -66.41365,-25.6941 -1.38788,-0.39316 -2.80658,-0.67745 -5.14099,-1.23423 10.59484,29.92106 11.68377,59.41716 2.07965,89.44585 -7.29731,-2.2838 -14.54206,-4.44557 -21.68341,-6.90732 -0.99762,-0.34388 -1.81861,-2.07155 -2.15638,-3.31244 -1.74621,-6.41471 -3.05676,-12.95617 -4.99243,-19.30928 -3.12085,-10.24275 -8.91064,-14.8928 -19.60943,-15.36592 -19.61487,-0.86737 -39.24713,-1.89818 -58.86908,-1.83922 -11.76838,0.0353 -23.52741,2.04534 -35.29734,3.09269 -7.26806,0.64674 -12.229,4.47136 -14.43234,11.23011 -2.25903,6.92968 -3.97629,14.05208 -5.59762,21.16604 -0.70487,3.09278 -1.85044,4.73124 -5.20023,5.47593 -6.4433,1.43244 -12.73605,3.54195 -19.94006,5.61489 -1.60148,-8.95514 -3.17392,-17.74808 -4.77906,-26.99981 z"
           id="path10-8" /><path
           fill="#1d567e"
           opacity="1"
           stroke="none"
           d="m 844.21755,1193.1312 c 11.9348,15.5159 14.7655,32.3217 7.2523,49.972 -7.1947,16.9021 -20.5621,26.8119 -38.9717,28.5998 -18.8925,1.8347 -34.0324,-5.7862 -44.1725,-21.5687 -10.3553,-16.1177 -10.7497,-33.4197 -1.2491,-50.1256 16.4221,-28.8769 53.8422,-32.1748 77.141,-6.8775 z"
           id="path11-5" /><path
           fill="#1e567e"
           opacity="1"
           stroke="none"
           d="m -90.696633,1176.8504 c 29.67979,-4.2809 55.14897,19.3044 54.50077,48.5796 -0.54745,24.7247 -20.00913,45.6101 -45.48917,46.7359 -22.486747,0.9936 -43.764567,-15.7438 -47.613197,-39.9077 -4.2859,-26.9092 11.08741,-49.1005 38.601597,-55.4078 z"
           id="path12" /><path
           fill="#1d567e"
           opacity="1"
           stroke="none"
           d="m 315.5871,1676.6611 c -3.27783,-26.3896 11.51743,-48.808 35.77909,-53.6462 18.99191,-3.7874 35.05325,2.2279 46.89346,17.5272 11.76385,15.2005 13.13653,32.29 4.99798,49.3988 -8.25274,17.349 -22.71295,26.0182 -42.1156,25.8364 -23.99133,-0.2249 -41.66287,-15.2889 -45.55493,-39.1162 z"
           id="path13" /><path
           fill="#1d567e"
           opacity="1"
           stroke="none"
           d="m 342.10059,739.81505 c 30.21039,-12.36829 57.4259,6.51717 64.00287,28.92398 6.2818,21.40104 -2.85327,44.30071 -22.33075,55.32339 -18.47949,10.4579 -42.20303,6.4196 -56.9863,-9.7003 -14.61392,-15.93525 -16.4465,-40.49889 -4.26141,-58.136 4.92785,-7.1327 11.39377,-12.51921 19.57559,-16.41107 z"
           id="path14" /><path
           fill="#717479"
           opacity="1"
           stroke="none"
           d="m 9.4896044,1510.4633 c 12.6621396,-17.133 29.3875496,-23.7421 49.6420246,-19.1196 19.523,4.4557 31.50128,17.4839 35.39751,37.0123 4.0535,20.3165 -6.85861,41.1054 -25.31439,50.2149 -18.75338,9.2562 -41.193635,4.987 -55.721035,-10.601 -13.63972957,-14.6355 -15.9217896,-37.2617 -5.5513596,-55.1096 0.41697,-0.7176 0.89817,-1.3977 1.54725,-2.397 z"
           id="path15" /><path
           fill="#717479"
           opacity="1"
           stroke="none"
           d="m 628.45665,1527.5402 c 5.5337,-25.7999 30.5507,-42.1067 55.8188,-36.7514 24.5552,5.2042 41.126,30.3318 36.0228,54.6241 -5.4267,25.8328 -29.8111,42.0797 -55.6803,37.0987 -25.1836,-4.8489 -41.1498,-28.8772 -36.1613,-54.9714 z"
           id="path16" /><path
           fill="#727479"
           opacity="1"
           stroke="none"
           d="m 69.608549,870.61432 c 18.70365,10.23942 28.70539,28.85309 25.8345,47.58307 -3.22702,21.05336 -17.72049,36.38992 -38.49846,40.73797 C 33.093764,963.92644 7.4275044,945.78868 3.7412744,921.3378 -0.56184557,892.79512 16.091134,870.11514 44.561979,866.04645 c 8.62393,-1.23243 16.86326,0.73164 25.04657,4.56787 z"
           id="path17" /><path
           fill="#727479"
           opacity="1"
           stroke="none"
           d="m 632.95995,891.97088 c 9.9937,-18.11532 28.0509,-28.37085 45.5471,-26.09803 20.6755,2.6858 35.6966,15.47447 40.5448,35.27813 4.565,18.64693 -0.5479,34.77997 -15.0313,47.2461 -14.2488,12.26405 -30.7085,15.04143 -47.9056,7.01355 -17.0653,-7.96639 -26.2064,-21.93079 -27.5537,-40.83142 -0.5558,-7.79781 0.7649,-15.23984 4.3987,-22.60833 z"
           id="path18" /><path
           fill="#346d95"
           opacity="1"
           stroke="none"
           d="m 73.704079,1207.0235 c 0.39961,1.3371 0.94309,3.0756 0.95781,4.8184 0.0837,9.9043 -0.33871,19.8289 0.16176,29.7085 0.39844,7.8653 1.61221,15.7244 3.05978,23.475 0.3376,1.8076 2.85951,4.1166 4.76691,4.577 14.74185,3.5585 29.581991,6.7093 44.382131,10.0288 0.87844,0.1969 1.67468,0.7605 2.59539,1.5202 -16.75311,-3.2462 -33.616481,-6.7557 -50.389221,-10.655 -1.44414,-0.3358 -3.02261,-3.1459 -3.29689,-4.9912 -2.86336,-19.2636 -3.86223,-38.6265 -2.23767,-58.4817 z"
           id="path19" /><path
           fill="#0c416d"
           opacity="1"
           stroke="none"
           d="m 53.508969,1243.1471 c -0.62537,-0.4215 -1.70018,-1.2757 -1.70888,-2.1405 -0.10564,-10.4958 -0.0682,-20.9932 -0.004,-31.4898 0.003,-0.5486 0.58253,-1.0937 1.26364,-1.7617 0.4117,11.5707 0.4534,23.2625 0.44919,35.392 z"
           id="path20" /><path
           fill="#346d95"
           opacity="1"
           stroke="none"
           d="m 75.706869,1189.0062 c 3.06391,5.1305 -0.49559,10.1521 -1.45285,15.5031 0.19794,-4.9703 0.76772,-10.0445 1.45285,-15.5031 z"
           id="path21" /><path
           fill="#346d95"
           opacity="1"
           stroke="none"
           d="m 131.84234,1283.9929 c 1.49142,4.1072 2.97208,8.6063 4.19693,13.3469 -1.57309,-4.1574 -2.89041,-8.5561 -4.19693,-13.3469 z"
           id="path22" /><path
           fill="#717479"
           opacity="1"
           stroke="none"
           d="m 755.01625,1145.294 c 0.021,0.1725 -0.08,0.4673 -0.2703,0.5688 -0.089,-0.1933 0.1475,-0.4466 0.2703,-0.5688 z"
           id="path23" /><path
           fill="#727479"
           opacity="1"
           stroke="none"
           d="m 282.39295,834.28171 c 0.18951,-0.0183 0.50961,0.10346 0.61835,0.31511 -0.2114,0.0899 -0.48774,-0.17513 -0.61835,-0.31511 z"
           id="path24" /><path
           fill="#717479"
           opacity="1"
           stroke="none"
           d="m 509.54627,1134.3518 c -1.99286,12.5867 -3.92108,24.7392 -6.00879,37.8974 -9.83106,-8.9966 -19.1579,-17.5317 -28.80249,-26.3578 -12.13556,12.6635 -23.94074,24.9822 -35.74591,37.3009 0.24646,0.4119 0.49292,0.8239 0.73944,1.2358 11.41858,-6.2539 22.83722,-12.5078 34.55743,-18.9268 7.50885,10.2863 12.45514,21.6181 15.39783,33.8316 11.03717,45.8088 -8.93133,91.7232 -51.1532,116.9047 -39.0235,23.2738 -80.31213,27.4914 -123.43481,13.4214 -3.71738,-1.2129 -6.45847,-0.8485 -9.70923,1.1193 -15.41873,9.3342 -43.40173,19.7259 -58.57294,21.9135 0.3371,-1.1939 0.54084,-2.2203 0.91156,-3.1824 5.62189,-14.589 11.15671,-29.2134 16.99692,-43.7146 1.15888,-2.8775 0.48132,-4.4217 -1.42624,-6.4679 -4.75656,-5.1022 -9.24026,-10.4588 -14.26843,-16.2107 26.88959,-30.1318 53.45761,-59.9033 80.2858,-89.9663 7.39022,6.8202 14.56424,13.4408 21.85861,20.1725 31.50421,-32.8717 62.73633,-65.4595 94.526,-98.629 -9.19775,-8.0435 -18.36676,-16.0618 -28.2088,-24.6687 34.40954,-7.8179 68.00452,-15.4508 102.41433,-23.2688 -3.51003,22.9042 -6.90127,45.033 -10.35708,67.5959 z"
           id="path26" /><path
           fill="#717479"
           opacity="1"
           stroke="none"
           d="m 231.62246,1236.6311 c -3.50848,-46.4884 16.459,-80.743 55.02745,-103.6271 39.82007,-23.6268 82.49743,-27.1814 126.40509,-11.4951 1.85998,0.6645 3.6488,1.5282 6.12707,2.5767 -22.79968,23.7512 -45.26263,47.1516 -68.10895,70.9513 -7.59533,-6.9688 -15.02508,-13.7856 -22.98675,-21.0904 -28.6806,32.3312 -57.23566,64.5211 -86.07508,97.0314 -5.80497,-10.8297 -9.04142,-22.0616 -10.38883,-34.3468 z"
           id="path27" /></g><text
         xml:space="preserve"
         style="font-size:192px;text-align:start;writing-mode:lr-tb;direction:ltr;text-anchor:start;fill:#f9f9f9;stroke-width:0.487559"
         x="-228.2607"
         y="1483.1526"
         id="text17"><tspan
           id="tspan16"
           x="-228.2607"
           y="1483.1526" /></text></g></g></svg>
